<svg xmlns="http://www.w3.org/2000/svg" width="1100" height="700" viewBox="0 0 1100 700">
<rect width="100%" height="100%" fill="#ffffff" />
<text x="90" y="28" font-size="22" font-family="Arial" fill="#111">Forward Returns After Top-20 Entry Events</text>
<text x="90" y="50" font-size="13" font-family="Arial" fill="#555">Solid lines show means. Dashed lines show medians. Buckets are event-day 7-day return quartiles.</text>
<line x1="90" y1="610.00" x2="850" y2="610.00" stroke="#e6e6e6" stroke-width="1" />
<text x="78" y="614.00" text-anchor="end" font-size="12" font-family="Arial" fill="#444">-10.4%</text>
<line x1="90" y1="498.00" x2="850" y2="498.00" stroke="#e6e6e6" stroke-width="1" />
<text x="78" y="502.00" text-anchor="end" font-size="12" font-family="Arial" fill="#444">-7.6%</text>
<line x1="90" y1="386.00" x2="850" y2="386.00" stroke="#e6e6e6" stroke-width="1" />
<text x="78" y="390.00" text-anchor="end" font-size="12" font-family="Arial" fill="#444">-4.8%</text>
<line x1="90" y1="274.00" x2="850" y2="274.00" stroke="#e6e6e6" stroke-width="1" />
<text x="78" y="278.00" text-anchor="end" font-size="12" font-family="Arial" fill="#444">-1.9%</text>
<line x1="90" y1="162.00" x2="850" y2="162.00" stroke="#e6e6e6" stroke-width="1" />
<text x="78" y="166.00" text-anchor="end" font-size="12" font-family="Arial" fill="#444">0.9%</text>
<line x1="90" y1="50.00" x2="850" y2="50.00" stroke="#e6e6e6" stroke-width="1" />
<text x="78" y="54.00" text-anchor="end" font-size="12" font-family="Arial" fill="#444">3.7%</text>
<line x1="90.00" y1="50" x2="90.00" y2="610" stroke="#f3f3f3" stroke-width="1" />
<text x="90.00" y="638" text-anchor="middle" font-size="12" font-family="Arial" fill="#444">+1</text>
<line x1="148.46" y1="50" x2="148.46" y2="610" stroke="#f3f3f3" stroke-width="1" />
<text x="148.46" y="638" text-anchor="middle" font-size="12" font-family="Arial" fill="#444">+2</text>
<line x1="206.92" y1="50" x2="206.92" y2="610" stroke="#f3f3f3" stroke-width="1" />
<text x="206.92" y="638" text-anchor="middle" font-size="12" font-family="Arial" fill="#444">+3</text>
<line x1="265.38" y1="50" x2="265.38" y2="610" stroke="#f3f3f3" stroke-width="1" />
<text x="265.38" y="638" text-anchor="middle" font-size="12" font-family="Arial" fill="#444">+4</text>
<line x1="323.85" y1="50" x2="323.85" y2="610" stroke="#f3f3f3" stroke-width="1" />
<text x="323.85" y="638" text-anchor="middle" font-size="12" font-family="Arial" fill="#444">+5</text>
<line x1="382.31" y1="50" x2="382.31" y2="610" stroke="#f3f3f3" stroke-width="1" />
<text x="382.31" y="638" text-anchor="middle" font-size="12" font-family="Arial" fill="#444">+6</text>
<line x1="440.77" y1="50" x2="440.77" y2="610" stroke="#f3f3f3" stroke-width="1" />
<text x="440.77" y="638" text-anchor="middle" font-size="12" font-family="Arial" fill="#444">+7</text>
<line x1="499.23" y1="50" x2="499.23" y2="610" stroke="#f3f3f3" stroke-width="1" />
<text x="499.23" y="638" text-anchor="middle" font-size="12" font-family="Arial" fill="#444">+8</text>
<line x1="557.69" y1="50" x2="557.69" y2="610" stroke="#f3f3f3" stroke-width="1" />
<text x="557.69" y="638" text-anchor="middle" font-size="12" font-family="Arial" fill="#444">+9</text>
<line x1="616.15" y1="50" x2="616.15" y2="610" stroke="#f3f3f3" stroke-width="1" />
<text x="616.15" y="638" text-anchor="middle" font-size="12" font-family="Arial" fill="#444">+10</text>
<line x1="674.62" y1="50" x2="674.62" y2="610" stroke="#f3f3f3" stroke-width="1" />
<text x="674.62" y="638" text-anchor="middle" font-size="12" font-family="Arial" fill="#444">+11</text>
<line x1="733.08" y1="50" x2="733.08" y2="610" stroke="#f3f3f3" stroke-width="1" />
<text x="733.08" y="638" text-anchor="middle" font-size="12" font-family="Arial" fill="#444">+12</text>
<line x1="791.54" y1="50" x2="791.54" y2="610" stroke="#f3f3f3" stroke-width="1" />
<text x="791.54" y="638" text-anchor="middle" font-size="12" font-family="Arial" fill="#444">+13</text>
<line x1="850.00" y1="50" x2="850.00" y2="610" stroke="#f3f3f3" stroke-width="1" />
<text x="850.00" y="638" text-anchor="middle" font-size="12" font-family="Arial" fill="#444">+14</text>
<line x1="90" y1="197.53" x2="850" y2="197.53" stroke="#999" stroke-width="1.5" />
<line x1="90" y1="50" x2="90" y2="610" stroke="#444" stroke-width="1.5" />
<line x1="90" y1="610" x2="850" y2="610" stroke="#444" stroke-width="1.5" />
<polyline fill="none" stroke="#c23b22" stroke-width="2.5" points="90.00,203.70 148.46,210.09 206.92,201.61 265.38,201.93 323.85,183.62 382.31,162.44 440.77,173.47 499.23,159.87 557.69,152.93 616.15,123.99 674.62,167.49 733.08,146.09 791.54,71.09 850.00,50.00" />
<polyline fill="none" stroke="#c23b22" stroke-width="2.5" stroke-dasharray="8 5" points="90.00,283.71 148.46,319.02 206.92,350.44 265.38,398.82 323.85,419.23 382.31,434.49 440.77,455.54 499.23,481.68 557.69,503.55 616.15,538.60 674.62,532.72 733.08,580.34 791.54,586.48 850.00,610.00" />
<line x1="874" y1="120" x2="906" y2="120" stroke="#c23b22" stroke-width="3" />
<line x1="874" y1="138" x2="906" y2="138" stroke="#c23b22" stroke-width="3" stroke-dasharray="8 5" />
<text x="914" y="124" font-size="12" font-family="Arial" fill="#222">75th percentile &amp; up mean</text>
<text x="914" y="142" font-size="12" font-family="Arial" fill="#222">75th percentile &amp; up median</text>
<polyline fill="none" stroke="#e08e0b" stroke-width="2.5" points="90.00,197.84 148.46,187.77 206.92,184.68 265.38,194.75 323.85,205.76 382.31,204.42 440.77,198.91 499.23,206.07 557.69,213.12 616.15,220.42 674.62,209.18 733.08,220.28 791.54,221.81 850.00,202.67" />
<polyline fill="none" stroke="#e08e0b" stroke-width="2.5" stroke-dasharray="8 5" points="90.00,246.25 148.46,250.97 206.92,284.69 265.38,291.45 323.85,326.09 382.31,333.98 440.77,352.71 499.23,382.87 557.69,380.68 616.15,406.42 674.62,406.02 733.08,420.47 791.54,453.80 850.00,479.02" />
<line x1="874" y1="210" x2="906" y2="210" stroke="#e08e0b" stroke-width="3" />
<line x1="874" y1="228" x2="906" y2="228" stroke="#e08e0b" stroke-width="3" stroke-dasharray="8 5" />
<text x="914" y="214" font-size="12" font-family="Arial" fill="#222">50th percentile - 75th percentile mean</text>
<text x="914" y="232" font-size="12" font-family="Arial" fill="#222">50th percentile - 75th percentile median</text>
<polyline fill="none" stroke="#1f77b4" stroke-width="2.5" points="90.00,202.87 148.46,198.41 206.92,195.94 265.38,206.85 323.85,202.73 382.31,200.85 440.77,203.65 499.23,213.95 557.69,213.18 616.15,195.31 674.62,190.49 733.08,155.99 791.54,162.06 850.00,154.80" />
<polyline fill="none" stroke="#1f77b4" stroke-width="2.5" stroke-dasharray="8 5" points="90.00,231.23 148.46,241.00 206.92,245.98 265.38,264.08 323.85,271.23 382.31,297.51 440.77,319.56 499.23,338.45 557.69,356.42 616.15,368.03 674.62,356.01 733.08,353.97 791.54,368.04 850.00,386.36" />
<line x1="874" y1="300" x2="906" y2="300" stroke="#1f77b4" stroke-width="3" />
<line x1="874" y1="318" x2="906" y2="318" stroke="#1f77b4" stroke-width="3" stroke-dasharray="8 5" />
<text x="914" y="304" font-size="12" font-family="Arial" fill="#222">25th percentile - 50th percentile mean</text>
<text x="914" y="322" font-size="12" font-family="Arial" fill="#222">25th percentile - 50th percentile median</text>
<polyline fill="none" stroke="#2e8b57" stroke-width="2.5" points="90.00,182.57 148.46,185.69 206.92,181.74 265.38,178.08 323.85,176.98 382.31,183.73 440.77,187.83 499.23,196.34 557.69,201.63 616.15,203.18 674.62,205.55 733.08,203.98 791.54,199.72 850.00,184.06" />
<polyline fill="none" stroke="#2e8b57" stroke-width="2.5" stroke-dasharray="8 5" points="90.00,197.53 148.46,199.46 206.92,203.72 265.38,201.75 323.85,210.02 382.31,225.23 440.77,230.49 499.23,235.40 557.69,237.77 616.15,256.77 674.62,268.23 733.08,275.98 791.54,273.40 850.00,297.80" />
<line x1="874" y1="390" x2="906" y2="390" stroke="#2e8b57" stroke-width="3" />
<line x1="874" y1="408" x2="906" y2="408" stroke="#2e8b57" stroke-width="3" stroke-dasharray="8 5" />
<text x="914" y="394" font-size="12" font-family="Arial" fill="#222">25th percentile and below mean</text>
<text x="914" y="412" font-size="12" font-family="Arial" fill="#222">25th percentile and below median</text>
</svg>